<?xml version="1.0" encoding="UTF-8"?>
<svg xmlns="http://www.w3.org/2000/svg" xmlns:xlink="http://www.w3.org/1999/xlink" width="3000pt" height="2000pt" viewBox="0 0 3000 2000" version="1.1">
<g id="surface1">
<rect x="0" y="0" width="3000" height="2000" style="fill:rgb(100%,100%,100%);fill-opacity:1;stroke:none;"/>
<path style=" stroke:none;fill-rule:nonzero;fill:rgb(92.1875%,95.3125%,98.046875%);fill-opacity:1;" d="M 2573.269531 1840.871094 C 2425.078125 1840.871094 421.605469 1836.550781 421.605469 1836.308594 C 420.777344 1834.359375 167.269531 1523.660156 486.488281 1198.808594 C 644.65625 1037.851563 341.238281 829.308594 486.488281 650.269531 C 648.027344 451.140625 808.464844 454.109375 957.265625 457.089844 C 1037.640625 458.691406 1114.628906 460.300781 1186.558594 430.039063 C 1222.800781 414.820313 1259.160156 390.308594 1295.558594 352.699219 C 1316.050781 331.558594 1338.5 313.058594 1362.539063 297.089844 C 1366.230469 294.628906 1369.949219 292.230469 1373.710938 289.898438 C 1388.109375 280.96875 1403.03125 272.910156 1418.398438 265.648438 C 1428.730469 260.78125 1439.25 256.269531 1449.96875 252.140625 L 1449.980469 252.140625 C 1466.980469 245.558594 1484.449219 239.890625 1502.289063 235.101563 C 1527.621094 228.289063 1553.710938 223.230469 1580.308594 219.800781 C 1591.910156 218.289063 1603.609375 217.109375 1615.390625 216.21875 C 1844.550781 198.988281 2102.429688 295.890625 2235.519531 437.519531 C 2262.308594 466.039063 2384.148438 613.601563 2288.109375 816.429688 C 2227.46875 944.488281 2481.5 1066.789063 2571.78125 1213.019531 C 2801.28125 1584.808594 2575.351563 1836.019531 2573.269531 1840.871094 "/>
<path style=" stroke:none;fill-rule:nonzero;fill:rgb(85.9375%,91.014099%,99.609375%);fill-opacity:1;" d="M 1919.878906 1132.988281 L 1854.449219 1034.921875 L 1815.191406 888.300781 L 1814.878906 887.128906 L 1755.859375 887.128906 L 1649.390625 727.539063 C 1659.359375 729.308594 1672.871094 737.859375 1690.089844 749.480469 C 1696.390625 753.730469 1701.160156 755.488281 1704.921875 755.488281 C 1718.929688 755.488281 1718.960938 731.089844 1732.53125 720.578125 C 1735.730469 718.101563 1739.878906 717.140625 1744.519531 717.140625 C 1752.480469 717.140625 1761.910156 719.96875 1770.558594 722.789063 C 1779.210938 725.621094 1787.070313 728.441406 1791.910156 728.441406 C 1794.578125 728.441406 1796.320313 727.578125 1796.761719 725.371094 C 1799.25 712.871094 1781.03125 706.25 1765.230469 701.539063 C 1749.421875 696.828125 1743.460938 690.539063 1757.949219 664.878906 C 1772.421875 639.21875 1755.378906 646.429688 1744.859375 615.800781 C 1740.078125 601.878906 1731.050781 594.929688 1722.628906 591.519531 C 1715.371094 593 1708.148438 594.769531 1701.039063 596.808594 C 1686.121094 601.078125 1671.578125 606.53125 1657.570313 613.089844 C 1636.308594 623.03125 1616.25 635.519531 1597.878906 650.328125 C 1616.25 635.519531 1636.308594 623.03125 1657.570313 613.089844 C 1671.578125 606.53125 1686.121094 601.078125 1701.039063 596.808594 C 1708.148438 594.769531 1715.371094 593 1722.628906 591.519531 C 1741.71875 587.589844 1761.289063 585.558594 1781.058594 585.558594 C 1814.078125 585.558594 1847.671875 591.21875 1880.519531 603.160156 C 1887.480469 605.691406 1894.289063 608.460938 1900.929688 611.460938 C 1910.308594 615.679688 1919.359375 620.339844 1928.070313 625.429688 C 1964.761719 646.820313 1995.460938 675.53125 2019 708.941406 L 2019.011719 708.949219 C 2033.679688 729.761719 2045.558594 752.378906 2054.351563 776.21875 C 2058.96875 788.730469 2062.738281 801.578125 2065.601563 814.660156 C 2067.390625 822.808594 2068.839844 831.03125 2069.929688 839.351563 C 2072.550781 859.320313 2073.089844 879.691406 2071.441406 900.160156 C 2069.460938 898.210938 2067.171875 896.769531 2064.589844 895.910156 C 2064.589844 895.910156 2069.171875 888.300781 2032.671875 878.121094 C 1996.171875 867.949219 2011.75 827.230469 1978.660156 818.289063 C 1972.308594 816.578125 1967.058594 815.910156 1962.519531 815.910156 C 1954.929688 815.910156 1949.359375 817.769531 1944.039063 819.628906 C 1938.730469 821.488281 1933.671875 823.339844 1927.078125 823.339844 C 1923.730469 823.339844 1919.980469 822.859375 1915.601563 821.648438 C 1908.261719 819.621094 1901.070313 818.519531 1894.578125 818.519531 C 1877.480469 818.519531 1865.410156 826.21875 1869.230469 844.988281 C 1874.511719 870.878906 1844.351563 864.550781 1850.179688 895.269531 C 1856.019531 926 1890.910156 927.859375 1919.578125 929.78125 C 1948.261719 931.699219 1903.628906 967.269531 1922.691406 993.519531 C 1941.75 1019.78125 1979.550781 1024.238281 1959.199219 1037.710938 C 1938.839844 1051.191406 1900.171875 1078.871094 1929.351563 1104.941406 C 1935.550781 1110.488281 1942.921875 1113.230469 1951.019531 1113.480469 C 1941.050781 1120.640625 1930.640625 1127.160156 1919.878906 1132.988281 M 2010.5 802.058594 C 2023.398438 802.058594 2029.839844 811.441406 2036.75 820.808594 C 2043.671875 830.191406 2051.070313 839.558594 2065.910156 839.558594 C 2067.191406 839.558594 2068.53125 839.488281 2069.929688 839.351563 C 2068.839844 831.03125 2067.390625 822.808594 2065.601563 814.660156 C 2062.738281 801.578125 2058.96875 788.730469 2054.351563 776.21875 C 2045.558594 752.378906 2033.679688 729.761719 2019.011719 708.949219 L 2019 708.941406 C 2017.171875 708.460938 2015.351563 708.21875 2013.558594 708.21875 C 2013.460938 708.21875 2013.359375 708.21875 2013.261719 708.21875 C 2013.261719 708.21875 2001.449219 701.710938 1989.640625 701.710938 C 1983.449219 701.710938 1977.269531 703.5 1972.789063 708.96875 C 1959.800781 724.859375 1932.070313 707.570313 1921.980469 729.660156 C 1911.890625 751.761719 1961.539063 739.929688 1976.28125 761.769531 C 1990.179688 782.390625 1979.621094 802.390625 2003.398438 802.390625 C 2004.820313 802.390625 2006.351563 802.320313 2008.019531 802.171875 C 2008.871094 802.101563 2009.699219 802.058594 2010.5 802.058594 M 1796.359375 619.460938 C 1784.738281 619.460938 1778.550781 630.410156 1785.078125 646.921875 C 1792.378906 665.339844 1793.640625 694.070313 1806.011719 694.070313 C 1807.988281 694.070313 1810.25 693.328125 1812.859375 691.710938 C 1829.539063 681.328125 1833.148438 669.710938 1844.5 669.710938 C 1846.070313 669.710938 1847.789063 669.929688 1849.71875 670.410156 C 1849.71875 670.410156 1873.320313 653.710938 1851.128906 638.191406 C 1828.941406 622.660156 1826.261719 631.449219 1807.890625 622.46875 C 1803.699219 620.421875 1799.789063 619.460938 1796.359375 619.460938 "/>
<path style=" stroke:none;fill-rule:nonzero;fill:rgb(72.851563%,80.46875%,99.609375%);fill-opacity:1;" d="M 1704.921875 755.488281 C 1701.160156 755.488281 1696.390625 753.730469 1690.089844 749.480469 C 1672.871094 737.859375 1659.359375 729.308594 1649.390625 727.539063 L 1597.878906 650.328125 C 1616.25 635.519531 1636.308594 623.03125 1657.570313 613.089844 C 1671.578125 606.53125 1686.121094 601.078125 1701.039063 596.808594 C 1708.148438 594.769531 1715.371094 593 1722.628906 591.519531 C 1731.050781 594.929688 1740.078125 601.878906 1744.859375 615.800781 C 1755.378906 646.429688 1772.421875 639.21875 1757.949219 664.878906 C 1743.460938 690.539063 1749.421875 696.828125 1765.230469 701.539063 C 1781.03125 706.25 1799.25 712.871094 1796.761719 725.371094 C 1796.320313 727.578125 1794.578125 728.441406 1791.910156 728.441406 C 1787.070313 728.441406 1779.210938 725.621094 1770.558594 722.789063 C 1761.910156 719.96875 1752.480469 717.140625 1744.519531 717.140625 C 1739.878906 717.140625 1735.730469 718.101563 1732.53125 720.578125 C 1718.960938 731.089844 1718.929688 755.488281 1704.921875 755.488281 "/>
<path style=" stroke:none;fill-rule:nonzero;fill:rgb(72.851563%,80.46875%,99.609375%);fill-opacity:1;" d="M 1951.019531 1113.480469 C 1942.921875 1113.230469 1935.550781 1110.488281 1929.351563 1104.941406 C 1900.171875 1078.871094 1938.839844 1051.191406 1959.199219 1037.710938 C 1979.550781 1024.238281 1941.75 1019.78125 1922.691406 993.519531 C 1903.628906 967.269531 1948.261719 931.699219 1919.578125 929.78125 C 1890.910156 927.859375 1856.019531 926 1850.179688 895.269531 C 1844.351563 864.550781 1874.511719 870.878906 1869.230469 844.988281 C 1865.410156 826.21875 1877.480469 818.519531 1894.578125 818.519531 C 1901.070313 818.519531 1908.261719 819.621094 1915.601563 821.648438 C 1919.980469 822.859375 1923.730469 823.339844 1927.078125 823.339844 C 1933.671875 823.339844 1938.730469 821.488281 1944.039063 819.628906 C 1949.359375 817.769531 1954.929688 815.910156 1962.519531 815.910156 C 1967.058594 815.910156 1972.308594 816.578125 1978.660156 818.289063 C 2011.75 827.230469 1996.171875 867.949219 2032.671875 878.121094 C 2069.171875 888.300781 2064.589844 895.910156 2064.589844 895.910156 C 2067.171875 896.769531 2069.460938 898.210938 2071.441406 900.160156 C 2069.390625 925.640625 2063.921875 951.28125 2054.761719 976.460938 C 2048.648438 993.28125 2041.140625 1009.21875 2032.410156 1024.160156 C 2011.460938 1060.019531 1983.53125 1090.171875 1951.019531 1113.480469 "/>
<path style=" stroke:none;fill-rule:nonzero;fill:rgb(72.851563%,80.46875%,99.609375%);fill-opacity:1;" d="M 2065.910156 839.558594 C 2051.070313 839.558594 2043.671875 830.191406 2036.75 820.808594 C 2029.839844 811.441406 2023.398438 802.058594 2010.5 802.058594 C 2009.699219 802.058594 2008.871094 802.101563 2008.019531 802.171875 C 2006.351563 802.320313 2004.820313 802.390625 2003.398438 802.390625 C 1979.621094 802.390625 1990.179688 782.390625 1976.28125 761.769531 C 1961.539063 739.929688 1911.890625 751.761719 1921.980469 729.660156 C 1932.070313 707.570313 1959.800781 724.859375 1972.789063 708.96875 C 1977.269531 703.5 1983.449219 701.710938 1989.640625 701.710938 C 2001.449219 701.710938 2013.261719 708.21875 2013.261719 708.21875 C 2013.359375 708.21875 2013.460938 708.21875 2013.558594 708.21875 C 2015.351563 708.21875 2017.171875 708.460938 2019 708.941406 L 2019.011719 708.949219 C 2033.679688 729.761719 2045.558594 752.378906 2054.351563 776.21875 C 2058.96875 788.730469 2062.738281 801.578125 2065.601563 814.660156 C 2067.390625 822.808594 2068.839844 831.03125 2069.929688 839.351563 C 2068.53125 839.488281 2067.191406 839.558594 2065.910156 839.558594 "/>
<path style=" stroke:none;fill-rule:nonzero;fill:rgb(72.851563%,80.46875%,99.609375%);fill-opacity:1;" d="M 1806.011719 694.070313 C 1793.640625 694.070313 1792.378906 665.339844 1785.078125 646.921875 C 1778.550781 630.410156 1784.738281 619.460938 1796.359375 619.460938 C 1799.789063 619.460938 1803.699219 620.421875 1807.890625 622.46875 C 1826.261719 631.449219 1828.941406 622.660156 1851.128906 638.191406 C 1873.320313 653.710938 1849.71875 670.410156 1849.71875 670.410156 C 1847.789063 669.929688 1846.070313 669.710938 1844.5 669.710938 C 1833.148438 669.710938 1829.539063 681.328125 1812.859375 691.710938 C 1810.25 693.328125 1807.988281 694.070313 1806.011719 694.070313 "/>
<path style=" stroke:none;fill-rule:nonzero;fill:rgb(65.818787%,82.421875%,62.304688%);fill-opacity:1;" d="M 487.773438 1837.140625 L 589.371094 1837.140625 C 594.816406 1832.519531 585.605469 1822.03125 575.980469 1821.328125 C 571.796875 1821.011719 566.511719 1821.890625 560.472656 1823.160156 C 559.074219 1804.589844 551.089844 1721.121094 521 1724.46875 C 487.167969 1728.230469 521 1761.230469 530.5625 1780.769531 C 537.648438 1795.25 545.121094 1816 548.539063 1825.800781 C 545.792969 1826.398438 542.949219 1826.980469 540.042969 1827.511719 C 535.558594 1813.75 518.871094 1767.429688 497.652344 1770.128906 C 472.742188 1773.289063 482.753906 1791.859375 500.414063 1802.878906 C 513.367188 1810.988281 529.277344 1822.511719 536.835938 1828.070313 C 530.429688 1829.121094 523.746094 1829.820313 516.964844 1829.671875 C 499.5625 1829.25 491.066406 1834.378906 487.773438 1837.140625 "/>
<path style=" stroke:none;fill-rule:nonzero;fill:rgb(65.818787%,82.421875%,62.304688%);fill-opacity:1;" d="M 2104.671875 1837.140625 L 2010.308594 1837.140625 C 2005.25 1832.851563 2013.808594 1823.109375 2022.75 1822.449219 C 2026.628906 1822.160156 2031.539063 1822.96875 2037.148438 1824.160156 C 2038.449219 1806.910156 2045.859375 1729.371094 2073.808594 1732.488281 C 2105.238281 1735.980469 2073.808594 1766.628906 2064.929688 1784.789063 C 2058.351563 1798.230469 2051.410156 1817.511719 2048.230469 1826.609375 C 2050.789063 1827.160156 2053.429688 1827.699219 2056.128906 1828.199219 C 2060.289063 1815.410156 2075.789063 1772.390625 2095.5 1774.898438 C 2118.640625 1777.828125 2109.339844 1795.078125 2092.941406 1805.320313 C 2080.898438 1812.851563 2066.128906 1823.550781 2059.109375 1828.71875 C 2065.050781 1829.691406 2071.261719 1830.339844 2077.558594 1830.199219 C 2093.730469 1829.808594 2101.621094 1834.578125 2104.671875 1837.140625 "/>
<path style=" stroke:none;fill-rule:nonzero;fill:rgb(100%,69.726563%,49.021912%);fill-opacity:1;" d="M 2172.070313 1218.558594 C 2172.070313 1218.558594 2174.320313 1196.21875 2162.628906 1196.980469 C 2150.949219 1197.75 2147.859375 1203.109375 2149.160156 1207.398438 C 2150.46875 1211.691406 2161.828125 1225.898438 2161.828125 1225.898438 L 2172.070313 1218.558594 "/>
<path style=" stroke:none;fill-rule:nonzero;fill:rgb(45.092773%,60.351563%,94.139099%);fill-opacity:1;" d="M 2354.101563 1263.320313 C 2354.101563 1263.320313 2341.160156 1278.519531 2313.351563 1296.050781 C 2310.71875 1297.71875 2307.960938 1299.390625 2305.058594 1301.078125 C 2294.261719 1307.371094 2281.589844 1313.820313 2266.960938 1319.828125 C 2265.351563 1320.488281 2263.460938 1321.21875 2261.328125 1321.980469 C 2244.671875 1328 2214 1336.53125 2195 1337.300781 C 2193.339844 1337.359375 2191.78125 1337.359375 2190.320313 1337.308594 C 2161.390625 1336.140625 2157.871094 1223.878906 2157.871094 1223.878906 C 2157.871094 1223.878906 2161.089844 1212.648438 2175.949219 1215.480469 C 2175.949219 1215.480469 2198.511719 1278.878906 2206.601563 1284.039063 C 2213.789063 1288.640625 2255.070313 1226.050781 2290.609375 1221.671875 C 2314.539063 1218.730469 2354.101563 1263.320313 2354.101563 1263.320313 "/>
<path style=" stroke:none;fill-rule:nonzero;fill:rgb(10.984802%,19.213867%,32.93457%);fill-opacity:1;" d="M 2276.390625 1810.738281 C 2276.390625 1810.738281 2278.53125 1835.449219 2273.308594 1838.019531 L 2206.460938 1837.890625 C 2206.460938 1837.890625 2206.460938 1830.171875 2217.191406 1828.460938 C 2227.929688 1826.738281 2246.789063 1820.460938 2249.988281 1806.449219 C 2253.179688 1792.449219 2276.390625 1810.738281 2276.390625 1810.738281 "/>
<path style=" stroke:none;fill-rule:nonzero;fill:rgb(16.479492%,30.589294%,58.789063%);fill-opacity:1;" d="M 2227.320313 1511.660156 C 2227.648438 1527.820313 2228.421875 1544.480469 2229.941406 1559.460938 C 2237.160156 1630.539063 2239.699219 1716.421875 2240.738281 1732.980469 C 2242.539063 1761.71875 2248.210938 1807.640625 2248.210938 1807.640625 C 2248.210938 1807.640625 2259.480469 1818.328125 2281.429688 1813.230469 C 2281.429688 1813.230469 2299.621094 1747.089844 2303.679688 1677.460938 C 2303.738281 1676.308594 2303.800781 1675.171875 2303.859375 1674.019531 C 2304.328125 1664.808594 2304.828125 1654.28125 2305.328125 1642.929688 C 2308.679688 1566.898438 2312.308594 1453.949219 2312.308594 1453.949219 L 2228.421875 1434.25 C 2228.421875 1434.25 2226.488281 1471.378906 2227.320313 1511.660156 "/>
<path style=" stroke:none;fill-rule:nonzero;fill:rgb(13.719177%,21.972656%,38.426208%);fill-opacity:1;" d="M 2227.320313 1511.660156 C 2248.578125 1548.339844 2289.101563 1615.910156 2305.328125 1642.929688 C 2308.679688 1566.898438 2312.308594 1453.949219 2312.308594 1453.949219 L 2228.421875 1434.25 C 2228.421875 1434.25 2226.488281 1471.378906 2227.320313 1511.660156 "/>
<path style=" stroke:none;fill-rule:nonzero;fill:rgb(38.818359%,52.146912%,85.9375%);fill-opacity:1;" d="M 2261.328125 1321.980469 C 2244.671875 1328 2214 1336.53125 2195 1337.300781 C 2197.898438 1336.75 2219.058594 1332.558594 2226.890625 1323.109375 C 2235.289063 1312.960938 2249.449219 1285.371094 2260.699219 1296.628906 C 2266 1301.929688 2264.449219 1312.398438 2261.328125 1321.980469 "/>
<path style=" stroke:none;fill-rule:nonzero;fill:rgb(100%,69.726563%,49.021912%);fill-opacity:1;" d="M 2402.289063 1499.710938 C 2402.289063 1499.710938 2407.5 1520.128906 2406.640625 1524.660156 C 2405.789063 1529.199219 2400.710938 1544.570313 2397.539063 1548.378906 C 2394.371094 1552.199219 2394.238281 1531.808594 2392.128906 1528.609375 C 2390.019531 1525.398438 2391.160156 1536.21875 2389.46875 1537.101563 C 2387.789063 1537.988281 2384.96875 1528.910156 2383.710938 1525.691406 C 2382.460938 1522.480469 2388.21875 1511.28125 2388.75 1503.25 C 2389.28125 1495.21875 2402.289063 1499.710938 2402.289063 1499.710938 "/>
<path style=" stroke:none;fill-rule:nonzero;fill:rgb(10.984802%,19.213867%,32.93457%);fill-opacity:1;" d="M 2442.921875 1782.660156 C 2442.921875 1782.660156 2454.820313 1793.511719 2452.5 1801.230469 C 2450.179688 1808.949219 2439.441406 1814.089844 2437.988281 1823.519531 C 2436.539063 1832.949219 2430.738281 1838.089844 2425.511719 1838.089844 C 2420.289063 1838.089844 2400.609375 1838.089844 2400.609375 1838.089844 C 2400.609375 1838.089844 2396.761719 1831.460938 2406.050781 1829.460938 C 2415.339844 1827.460938 2418.839844 1816.371094 2418.261719 1806.089844 C 2417.679688 1795.800781 2419.128906 1782.078125 2419.128906 1782.078125 L 2438.859375 1777.511719 L 2442.921875 1782.660156 "/>
<path style=" stroke:none;fill-rule:nonzero;fill:rgb(16.479492%,30.589294%,58.789063%);fill-opacity:1;" d="M 2241.640625 1455.671875 C 2241.640625 1455.671875 2320.171875 1623.691406 2361.960938 1697.410156 C 2403.75 1771.128906 2416.808594 1791.710938 2416.808594 1791.710938 C 2416.808594 1791.710938 2440.75 1782.28125 2442.921875 1775.851563 C 2442.921875 1775.851563 2426.941406 1633.519531 2398.960938 1598.828125 C 2383.140625 1579.21875 2364.570313 1520.390625 2363.699219 1499.820313 C 2362.828125 1479.238281 2344.480469 1430.140625 2344.480469 1430.140625 L 2241.640625 1455.671875 "/>
<path style=" stroke:none;fill-rule:nonzero;fill:rgb(45.092773%,60.351563%,94.139099%);fill-opacity:1;" d="M 2227.011719 1446.929688 C 2227.011719 1446.929688 2252.578125 1474.449219 2296.03125 1482.761719 C 2315.101563 1486.410156 2353.808594 1489.929688 2363.410156 1476.359375 C 2365.660156 1473.171875 2365.679688 1468.449219 2365.179688 1461.078125 C 2363.890625 1441.929688 2359.070313 1404.898438 2380.820313 1330.488281 C 2382.851563 1323.570313 2384.210938 1316.929688 2385 1310.601563 C 2389.75 1272.539063 2389.238281 1243.800781 2356.210938 1228.449219 C 2306.71875 1205.449219 2286.410156 1224.371094 2286.410156 1224.371094 C 2286.410156 1224.371094 2260.089844 1236.671875 2248.070313 1272.511719 C 2224.019531 1344.210938 2227.011719 1446.929688 2227.011719 1446.929688 "/>
<path style=" stroke:none;fill-rule:nonzero;fill:rgb(100%,69.726563%,49.021912%);fill-opacity:1;" d="M 2326.5 1222.128906 C 2318.171875 1228.050781 2303.511719 1231.539063 2289.539063 1224.550781 C 2288.460938 1224.011719 2288.589844 1216.621094 2288.859375 1209.359375 C 2289.128906 1202.238281 2289.800781 1195.25 2289.800781 1195.25 L 2307.410156 1183.691406 L 2324.210938 1172.671875 C 2322.199219 1210.570313 2330.261719 1219.441406 2326.5 1222.128906 "/>
<path style=" stroke:none;fill-rule:nonzero;fill:rgb(92.96875%,59.568787%,37.255859%);fill-opacity:1;" d="M 2321.261719 1188.308594 C 2321.261719 1188.308594 2309.828125 1205.460938 2288.859375 1209.359375 C 2289.128906 1202.238281 2289.890625 1194.390625 2289.890625 1194.390625 L 2307.410156 1183.691406 L 2321.261719 1188.308594 "/>
<path style=" stroke:none;fill-rule:nonzero;fill:rgb(100%,69.726563%,49.021912%);fill-opacity:1;" d="M 2274.03125 1190.789063 C 2274.03125 1190.789063 2316.628906 1206.691406 2326.109375 1180.441406 C 2335.589844 1154.191406 2347.46875 1138.570313 2320.671875 1127.308594 C 2293.878906 1116.050781 2284.949219 1124.171875 2279.621094 1132.160156 C 2274.289063 1140.148438 2263.199219 1185.980469 2274.03125 1190.789063 "/>
<path style=" stroke:none;fill-rule:nonzero;fill:rgb(17.259216%,22.75238%,39.208984%);fill-opacity:1;" d="M 2352.648438 1130.261719 C 2353.140625 1129.878906 2354.128906 1129.691406 2356.210938 1129.988281 C 2356.210938 1129.988281 2354.769531 1128.640625 2352.589844 1128.148438 C 2352.71875 1125.210938 2352.199219 1119.859375 2347.539063 1117.671875 C 2347.539063 1117.671875 2349.898438 1119.589844 2349.640625 1122.691406 C 2345.109375 1115.730469 2333.769531 1109.070313 2299.5 1105.070313 C 2254.351563 1099.800781 2263.378906 1131.160156 2268.460938 1135.691406 C 2273.550781 1140.21875 2289.878906 1133.78125 2300.429688 1136.75 C 2310.988281 1139.71875 2309.96875 1155.621094 2313.191406 1158.46875 C 2316.398438 1161.308594 2315.71875 1157.269531 2321.078125 1156.019531 C 2326.441406 1154.761719 2325.300781 1163.011719 2322.828125 1168.039063 C 2320.359375 1173.058594 2325.738281 1181.390625 2325.738281 1181.390625 C 2325.738281 1181.390625 2325.738281 1181.390625 2334.03125 1175.378906 C 2342.320313 1169.371094 2354.921875 1139.460938 2353.128906 1132.199219 C 2352.96875 1131.558594 2352.808594 1130.910156 2352.648438 1130.261719 "/>
<path style=" stroke:none;fill-rule:nonzero;fill:rgb(38.818359%,52.146912%,85.9375%);fill-opacity:1;" d="M 2365.179688 1461.078125 C 2363.890625 1441.929688 2359.070313 1404.898438 2380.820313 1330.488281 C 2382.851563 1323.570313 2384.210938 1316.929688 2385 1310.601563 C 2368.839844 1305.269531 2339.390625 1317.128906 2339.390625 1317.128906 C 2339.390625 1317.128906 2332.46875 1415.488281 2365.179688 1461.078125 "/>
<path style=" stroke:none;fill-rule:nonzero;fill:rgb(45.092773%,60.351563%,94.139099%);fill-opacity:1;" d="M 2365.121094 1233.429688 C 2365.121094 1233.429688 2385 1240.660156 2397.691406 1293.300781 C 2406.070313 1328.089844 2421.488281 1379.210938 2423.230469 1395.28125 C 2424.96875 1411.351563 2405.601563 1505.410156 2405.601563 1505.410156 C 2405.601563 1505.410156 2402.859375 1507.398438 2396.171875 1506.058594 C 2389.761719 1504.78125 2386.78125 1500.449219 2386.78125 1500.449219 C 2386.78125 1500.449219 2382.140625 1437.75 2383.339844 1408.148438 C 2383.839844 1395.851563 2326.410156 1318.078125 2295.410156 1308.058594 C 2283.238281 1304.128906 2365.121094 1233.429688 2365.121094 1233.429688 "/>
<path style=" stroke:none;fill-rule:nonzero;fill:rgb(68.164063%,76.5625%,100%);fill-opacity:1;" d="M 2086.988281 1165.28125 C 2086.988281 1165.28125 2144.460938 1163.640625 2210.789063 1175.851563 L 2217.710938 1158.390625 L 2225.308594 1139.261719 C 2225.308594 1139.261719 2158.730469 1110.601563 2118.710938 1070.679688 L 2086.988281 1165.28125 "/>
<path style=" stroke:none;fill-rule:nonzero;fill:rgb(97.65625%,59.179688%,27.43988%);fill-opacity:1;" d="M 2119.621094 1069.75 L 2086.621094 1167.160156 C 2081.800781 1165.730469 2079.160156 1160.550781 2080.839844 1155.800781 L 2109.878906 1073.960938 C 2111.289063 1070 2115.769531 1068.058594 2119.621094 1069.75 "/>
<path style=" stroke:none;fill-rule:nonzero;fill:rgb(97.65625%,59.179688%,27.43988%);fill-opacity:1;" d="M 2151.121094 1237.769531 C 2157.53125 1239.058594 2163.828125 1234.859375 2165.109375 1228.441406 L 2176.46875 1171.589844 C 2177.761719 1165.179688 2173.558594 1158.878906 2167.140625 1157.601563 C 2160.71875 1156.320313 2154.429688 1160.519531 2153.140625 1166.929688 L 2141.78125 1223.78125 C 2140.5 1230.191406 2144.699219 1236.488281 2151.121094 1237.769531 "/>
<path style=" stroke:none;fill-rule:nonzero;fill:rgb(45.092773%,60.351563%,94.139099%);fill-opacity:1;" d="M 2086.988281 1165.28125 C 2086.988281 1165.28125 2144.460938 1163.640625 2210.789063 1175.851563 L 2217.710938 1158.390625 C 2155.398438 1145.671875 2086.988281 1165.28125 2086.988281 1165.28125 "/>
<path style=" stroke:none;fill-rule:nonzero;fill:rgb(97.65625%,59.179688%,27.43988%);fill-opacity:1;" d="M 2192.449219 1172.339844 L 2210.410156 1175.5 C 2210.128906 1175.511719 2227.089844 1178.800781 2232.648438 1163.769531 C 2233.160156 1162.738281 2233.480469 1161.730469 2233.710938 1160.53125 C 2238.03125 1141.800781 2227.75 1138.351563 2227.75 1138.351563 L 2204.628906 1129.339844 L 2197.289063 1155.328125 C 2197.289063 1155.328125 2197.289063 1155.328125 2197.289063 1155.421875 L 2192.449219 1172.339844 "/>
<path style=" stroke:none;fill-rule:nonzero;fill:rgb(92.96875%,49.021912%,16.868591%);fill-opacity:1;" d="M 2192.449219 1172.339844 L 2210.410156 1175.5 C 2210.128906 1175.511719 2227.089844 1178.800781 2232.648438 1163.769531 C 2222.488281 1156.378906 2197.289063 1155.328125 2197.289063 1155.328125 C 2197.289063 1155.328125 2197.289063 1155.328125 2197.289063 1155.421875 L 2192.449219 1172.339844 "/>
<path style=" stroke:none;fill-rule:nonzero;fill:rgb(100%,69.726563%,49.021912%);fill-opacity:1;" d="M 2152.648438 1182.730469 C 2152.648438 1182.730469 2161.429688 1186.230469 2159.820313 1190.101563 C 2158.210938 1193.960938 2147.039063 1199.28125 2145.28125 1196.230469 C 2143.519531 1193.179688 2147.121094 1179.460938 2152.648438 1182.730469 "/>
<path style=" stroke:none;fill-rule:nonzero;fill:rgb(100%,69.726563%,49.021912%);fill-opacity:1;" d="M 2172.238281 1215.039063 C 2172.238281 1215.039063 2173.898438 1206.050781 2174 1201.921875 C 2174.101563 1197.789063 2174.589844 1194.421875 2173.621094 1194.300781 C 2172.640625 1194.191406 2171.941406 1194.949219 2171.539063 1196.28125 C 2171.140625 1197.601563 2169.621094 1205.839844 2169.621094 1205.839844 L 2170.390625 1213.78125 L 2172.238281 1215.039063 "/>
<path style=" stroke:none;fill-rule:nonzero;fill:rgb(45.872498%,59.959412%,91.796875%);fill-opacity:1;" d="M 1303.308594 1209.171875 L 1253.539063 1800.96875 C 1253.539063 1800.96875 1248.328125 1836.851563 1275.011719 1836.910156 C 1318.878906 1837.019531 1493.390625 1836.910156 1493.390625 1836.910156 C 1493.390625 1836.910156 1460.359375 1829.441406 1460.761719 1812.640625 C 1461.238281 1792.839844 1518.941406 1203.570313 1518.941406 1203.570313 L 1303.308594 1209.171875 "/>
<path style=" stroke:none;fill-rule:nonzero;fill:rgb(56.443787%,68.554688%,95.701599%);fill-opacity:1;" d="M 1509.808594 1826.410156 C 1501.179688 1826.441406 1332.238281 1826.71875 1289.519531 1826.171875 C 1270.898438 1825.941406 1267.628906 1809.621094 1267.480469 1799.050781 C 1267.398438 1793.988281 1268.039063 1790.238281 1268.039063 1790.238281 L 1269.339844 1774.859375 L 1272.640625 1735.660156 L 1275.550781 1701.019531 L 1279.289063 1656.511719 L 1282.449219 1618.949219 L 1317.808594 1198.429688 L 1533.441406 1192.828125 C 1533.441406 1192.828125 1509.140625 1439.441406 1491.949219 1618.949219 C 1490.03125 1638.949219 1488.199219 1658.121094 1486.519531 1676.03125 C 1485.96875 1681.738281 1485.441406 1687.328125 1484.929688 1692.769531 C 1483.339844 1709.75 1481.878906 1725.351563 1480.609375 1739.121094 C 1479.941406 1746.378906 1479.328125 1753.121094 1478.769531 1759.300781 C 1476.570313 1783.511719 1475.289063 1798.96875 1475.269531 1801.910156 C 1475.261719 1803.621094 1475.410156 1805.210938 1475.691406 1806.699219 C 1479.230469 1825.558594 1506.570313 1826.410156 1509.808594 1826.410156 "/>
<path style=" stroke:none;fill-rule:nonzero;fill:rgb(68.164063%,76.5625%,100%);fill-opacity:1;" d="M 779.652344 887.128906 L 900.890625 1374.109375 L 917.488281 1440.808594 L 973.953125 1667.628906 L 2023 1667.628906 L 1814.878906 887.128906 L 779.652344 887.128906 "/>
<path style=" stroke:none;fill-rule:nonzero;fill:rgb(56.443787%,68.554688%,95.701599%);fill-opacity:1;" d="M 779.652344 887.128906 L 762.847656 892.730469 L 951.617188 1684.570313 L 973.957031 1667.628906 L 779.652344 887.128906 "/>
<path style=" stroke:none;fill-rule:nonzero;fill:rgb(45.872498%,59.959412%,91.796875%);fill-opacity:1;" d="M 951.617188 1684.570313 L 1994.210938 1684.570313 L 2023 1667.628906 L 973.957031 1667.628906 L 951.617188 1684.570313 "/>
<path style=" stroke:none;fill-rule:nonzero;fill:rgb(68.164063%,76.5625%,100%);fill-opacity:1;" d="M 1317.738281 1837.140625 L 1543.480469 1837.140625 L 1543.480469 1826.410156 L 1317.738281 1826.410156 Z M 1317.738281 1837.140625 "/>
<path style=" stroke:none;fill-rule:nonzero;fill:rgb(34.521484%,53.318787%,86.71875%);fill-opacity:1;" d="M 1486.101563 1684.570313 L 1484.929688 1692.769531 L 1272.640625 1735.660156 L 1275.550781 1701.019531 L 1276.941406 1684.570313 L 1486.101563 1684.570313 "/>
<path style=" stroke:none;fill-rule:nonzero;fill:rgb(47.851563%,62.304688%,92.1875%);fill-opacity:1;" d="M 1509.808594 1826.410156 L 1327.808594 1826.410156 C 1311.550781 1826.359375 1298.03125 1826.28125 1289.519531 1826.171875 C 1270.898438 1825.941406 1267.628906 1809.621094 1267.480469 1799.050781 L 1478.769531 1759.300781 C 1476.570313 1783.511719 1475.289063 1798.96875 1475.269531 1801.910156 C 1475.269531 1801.960938 1475.269531 1802.011719 1475.269531 1802.070313 C 1475.269531 1803.71875 1475.421875 1805.261719 1475.691406 1806.699219 C 1479.230469 1825.558594 1506.570313 1826.410156 1509.808594 1826.410156 "/>
<path style=" stroke:none;fill-rule:nonzero;fill:rgb(54.881287%,66.992188%,94.53125%);fill-opacity:1;" d="M 1406.460938 1826.511719 C 1379.019531 1826.511719 1350.699219 1826.480469 1327.808594 1826.410156 L 1509.808594 1826.410156 C 1505.320313 1826.429688 1457.398438 1826.511719 1406.460938 1826.511719 "/>
<path style=" stroke:none;fill-rule:nonzero;fill:rgb(68.164063%,76.5625%,100%);fill-opacity:1;" d="M 779.652344 887.128906 L 1814.878906 887.128906 L 1982.839844 1514.410156 L 935.8125 1514.410156 L 779.652344 887.128906 "/>
<path style=" stroke:none;fill-rule:nonzero;fill:rgb(45.092773%,60.351563%,94.139099%);fill-opacity:1;" d="M 1934.019531 1487.21875 L 964.730469 1487.21875 L 930.09375 1349.238281 L 916.691406 1295.851563 L 911.230469 1274.078125 L 875.628906 1132.28125 L 873.785156 1124.898438 L 854.964844 1049.941406 L 846.546875 1016.410156 L 839.363281 987.800781 L 822.53125 920.738281 L 1777.839844 920.738281 L 1796.328125 987.800781 L 1804.21875 1016.410156 L 1813.460938 1049.941406 L 1874.371094 1270.890625 L 1874.371094 1270.898438 L 1879.53125 1289.621094 L 1881.929688 1298.308594 L 1923.988281 1450.839844 L 1934.019531 1487.21875 "/>
<path style=" stroke:none;fill-rule:nonzero;fill:rgb(37.646484%,48.631287%,95.701599%);fill-opacity:1;" d="M 1796.328125 987.800781 L 839.367188 987.800781 L 822.535156 920.730469 L 1777.851563 920.730469 L 1796.328125 987.800781 "/>
<path style=" stroke:none;fill-rule:nonzero;fill:rgb(91.40625%,95.3125%,99.609375%);fill-opacity:1;" d="M 862.054688 951.039063 C 860.898438 946.410156 863.71875 942.660156 868.347656 942.660156 C 872.980469 942.660156 877.667969 946.410156 878.820313 951.039063 C 879.976563 955.671875 877.160156 959.429688 872.527344 959.429688 C 867.898438 959.429688 863.207031 955.671875 862.054688 951.039063 "/>
<path style=" stroke:none;fill-rule:nonzero;fill:rgb(91.40625%,95.3125%,99.609375%);fill-opacity:1;" d="M 889.910156 951.039063 C 888.757813 946.410156 891.574219 942.660156 896.207031 942.660156 C 900.835938 942.660156 905.527344 946.410156 906.679688 951.039063 C 907.835938 955.671875 905.015625 959.429688 900.386719 959.429688 C 895.757813 959.429688 891.066406 955.671875 889.910156 951.039063 "/>
<path style=" stroke:none;fill-rule:nonzero;fill:rgb(91.40625%,95.3125%,99.609375%);fill-opacity:1;" d="M 919.910156 951.039063 C 918.753906 946.410156 921.570313 942.660156 926.203125 942.660156 C 930.832031 942.660156 935.523438 946.410156 936.675781 951.039063 C 937.832031 955.671875 935.015625 959.429688 930.382813 959.429688 C 925.753906 959.429688 921.0625 955.671875 919.910156 951.039063 "/>
<path style=" stroke:none;fill-rule:nonzero;fill:rgb(96.875%,49.021912%,28.24707%);fill-opacity:1;" d="M 1587.808594 530.828125 C 1626.988281 484.828125 1687.398438 392.429688 1728.070313 345.109375 C 1736.441406 335.371094 1729.488281 320.339844 1716.640625 320.339844 L 1642.628906 320.339844 L 1712.441406 162.488281 C 1715.421875 155.75 1706.238281 150.378906 1701.828125 156.28125 L 1533.03125 382.210938 C 1528.109375 388.800781 1533.488281 398.070313 1541.660156 397.070313 L 1625.441406 386.75 L 1575.589844 523.691406 C 1572.851563 531.21875 1582.609375 536.929688 1587.808594 530.828125 "/>
<path style=" stroke:none;fill-rule:nonzero;fill:rgb(68.164063%,76.5625%,100%);fill-opacity:1;" d="M 1239.359375 810.988281 C 1248.171875 765.789063 1253.730469 681.820313 1263.050781 635.179688 C 1264.960938 625.578125 1254.71875 618.199219 1246.191406 623.011719 L 1197.039063 650.691406 L 1184.359375 519.730469 C 1183.808594 514.140625 1175.710938 514.011719 1174.980469 519.578125 L 1147.378906 732.769531 C 1146.570313 738.988281 1153.621094 743.140625 1158.671875 739.421875 L 1210.460938 701.21875 L 1228.570313 810.820313 C 1229.570313 816.851563 1238.191406 816.988281 1239.359375 810.988281 "/>
<path style=" stroke:none;fill-rule:nonzero;fill:rgb(90.234375%,93.75%,100%);fill-opacity:1;" d="M 1976.359375 1500.578125 L 1134.128906 1571.53125 C 1070.171875 1576.921875 1023.890625 1511.730469 1050.078125 1453.128906 L 1406.898438 654.558594 C 1433.96875 593.980469 1517.179688 586.96875 1554 642.171875 L 2039.410156 1369.78125 C 2075.03125 1423.171875 2040.308594 1495.191406 1976.359375 1500.578125 "/>
<path style=" stroke:none;fill-rule:nonzero;fill:rgb(96.875%,49.021912%,28.24707%);fill-opacity:1;" d="M 1479.480469 636.800781 C 1460.199219 638.429688 1443.980469 649.941406 1436.089844 667.601563 L 1079.261719 1466.179688 C 1071.628906 1483.261719 1073.539063 1502.558594 1084.371094 1517.820313 C 1095.199219 1533.078125 1112.800781 1541.25 1131.441406 1539.679688 L 1973.671875 1468.71875 C 1992.320313 1467.148438 2008.300781 1456.148438 2016.421875 1439.289063 C 2024.550781 1422.441406 2023.199219 1403.089844 2012.820313 1387.519531 L 1527.410156 659.910156 C 1516.671875 643.808594 1498.75 635.179688 1479.480469 636.800781 M 1979.039063 1532.429688 L 1136.808594 1603.390625 C 1095.390625 1606.878906 1056.289063 1588.730469 1032.230469 1554.828125 C 1008.171875 1520.941406 1003.929688 1478.039063 1020.890625 1440.089844 L 1377.710938 641.519531 C 1395.238281 602.28125 1431.28125 576.691406 1474.109375 573.089844 C 1516.941406 569.480469 1556.75 588.671875 1580.601563 624.421875 L 2066.011719 1352.039063 C 2089.078125 1386.621094 2092.070313 1429.609375 2074.019531 1467.058594 C 2055.96875 1504.5 2020.460938 1528.941406 1979.039063 1532.429688 "/>
<path style=" stroke:none;fill-rule:nonzero;fill:rgb(96.875%,49.021912%,28.24707%);fill-opacity:1;" d="M 1589.960938 1226.03125 L 1468.640625 1236.25 L 1416.53125 823.179688 L 1572.21875 810.058594 Z M 1459.738281 1378.398438 C 1458.828125 1367.550781 1459.921875 1357.351563 1463.019531 1347.808594 C 1466.121094 1338.28125 1470.921875 1329.839844 1477.429688 1322.5 C 1483.941406 1315.171875 1492 1309.179688 1501.628906 1304.558594 C 1511.25 1299.949219 1522.289063 1297.101563 1534.769531 1296.050781 C 1547.230469 1295 1558.679688 1295.949219 1569.109375 1298.878906 C 1579.539063 1301.808594 1588.578125 1306.351563 1596.21875 1312.488281 C 1603.871094 1318.640625 1610.011719 1326.160156 1614.671875 1335.039063 C 1619.308594 1343.921875 1622.101563 1353.789063 1623.019531 1364.640625 C 1623.929688 1375.5 1622.828125 1385.621094 1619.71875 1394.980469 C 1616.601563 1404.359375 1611.789063 1412.71875 1605.289063 1420.050781 C 1598.78125 1427.390625 1590.628906 1433.378906 1580.828125 1438.011719 C 1571.039063 1442.640625 1559.910156 1445.488281 1547.449219 1446.539063 C 1534.96875 1447.589844 1523.609375 1446.640625 1513.351563 1443.699219 C 1503.089844 1440.761719 1494.140625 1436.210938 1486.5 1430.058594 C 1478.851563 1423.921875 1472.699219 1416.488281 1468.070313 1407.761719 C 1463.429688 1399.039063 1460.660156 1389.25 1459.738281 1378.398438 "/>
<path style=" stroke:none;fill-rule:nonzero;fill:rgb(100%,69.726563%,49.021912%);fill-opacity:1;" d="M 936.75 1251.359375 C 936.75 1251.359375 939.390625 1245.421875 941.101563 1242.609375 C 942.8125 1239.800781 950.117188 1231.558594 951.359375 1233.429688 C 952.605469 1235.289063 957.578125 1247.851563 954.9375 1251.359375 C 952.292969 1254.878906 955.109375 1261 941.964844 1264.699219 L 936.75 1251.359375 "/>
<path style=" stroke:none;fill-rule:nonzero;fill:rgb(92.96875%,49.021912%,16.868591%);fill-opacity:1;" d="M 790.675781 1213.859375 C 790.675781 1213.859375 857.964844 1270.03125 884.199219 1264.828125 C 904.714844 1260.761719 937.152344 1250.46875 937.152344 1250.46875 C 937.152344 1250.46875 945.710938 1258.621094 943.289063 1268.378906 C 943.289063 1268.378906 901.96875 1307.261719 872.527344 1307.511719 C 826.511719 1307.898438 804.804688 1284.710938 804.804688 1284.710938 L 790.675781 1213.859375 "/>
<path style=" stroke:none;fill-rule:nonzero;fill:rgb(6.665039%,23.535156%,40.795898%);fill-opacity:1;" d="M 672.667969 1806.308594 C 672.667969 1806.308594 674.621094 1837.820313 680.71875 1838.269531 C 681.527344 1838.328125 711.636719 1838.328125 711.636719 1838.328125 L 750.074219 1838.109375 C 750.074219 1838.109375 749.820313 1828.839844 738.585938 1826.890625 C 727.351563 1824.929688 708.546875 1817.03125 701.742188 1802.179688 C 694.582031 1786.558594 672.667969 1806.308594 672.667969 1806.308594 "/>
<path style=" stroke:none;fill-rule:nonzero;fill:rgb(16.479492%,30.589294%,58.789063%);fill-opacity:1;" d="M 670.453125 1808.488281 C 670.453125 1808.488281 682.136719 1812.398438 691.257813 1812.398438 C 701.433594 1812.398438 710.683594 1809.628906 710.683594 1809.628906 C 710.683594 1809.628906 712.882813 1788.359375 724.988281 1741.488281 C 731.335938 1716.921875 740.398438 1685.328125 753.292969 1646.078125 C 788.941406 1537.601563 799.785156 1474.140625 800.773438 1468.128906 C 800.824219 1467.820313 800.847656 1467.660156 800.847656 1467.660156 L 800.730469 1467.609375 L 691.125 1419.480469 C 691.125 1419.480469 704.671875 1568.988281 687.390625 1626.378906 C 684.96875 1634.398438 682.894531 1643.738281 681.117188 1653.871094 C 670.199219 1716.199219 670.453125 1808.488281 670.453125 1808.488281 "/>
<path style=" stroke:none;fill-rule:nonzero;fill:rgb(13.719177%,21.972656%,38.426208%);fill-opacity:1;" d="M 724.988281 1741.488281 C 731.335938 1716.921875 740.398438 1685.328125 753.292969 1646.078125 C 788.941406 1537.601563 799.785156 1474.140625 800.773438 1468.128906 C 800.761719 1467.949219 800.753906 1467.78125 800.730469 1467.609375 L 691.125 1419.480469 C 691.125 1419.480469 704.671875 1568.988281 687.390625 1626.378906 C 684.96875 1634.398438 724.988281 1741.488281 724.988281 1741.488281 "/>
<path style=" stroke:none;fill-rule:nonzero;fill:rgb(8.227539%,26.660156%,48.631287%);fill-opacity:1;" d="M 758.277344 1806.308594 C 758.277344 1806.308594 760.230469 1837.820313 766.324219 1838.269531 C 767.136719 1838.328125 797.246094 1838.328125 797.246094 1838.328125 L 835.679688 1838.109375 C 835.679688 1838.109375 835.429688 1828.839844 824.195313 1826.890625 C 812.960938 1824.929688 794.152344 1817.03125 787.347656 1802.179688 C 780.1875 1786.558594 758.277344 1806.308594 758.277344 1806.308594 "/>
<path style=" stroke:none;fill-rule:nonzero;fill:rgb(16.479492%,30.589294%,58.789063%);fill-opacity:1;" d="M 820.417969 1423 C 820.417969 1423 821.84375 1519.890625 805.078125 1638.839844 C 788.316406 1757.800781 794 1808.289063 794 1808.289063 C 794 1808.289063 782.480469 1812.019531 777.835938 1812.398438 C 765.992188 1813.371094 753.851563 1809.628906 753.851563 1809.628906 C 753.851563 1809.628906 729.859375 1690.628906 736.738281 1631.089844 C 743.617188 1571.550781 703.882813 1426.78125 703.882813 1426.78125 L 820.417969 1423 "/>
<path style=" stroke:none;fill-rule:nonzero;fill:rgb(100%,69.726563%,49.021912%);fill-opacity:1;" d="M 742.699219 1196.289063 L 764.09375 1210.308594 L 783.582031 1204.800781 C 787.144531 1199.71875 788.089844 1189.921875 788.140625 1181.441406 C 788.191406 1173.011719 787.375 1165.878906 787.375 1165.878906 L 758.511719 1153.140625 L 747.738281 1148.390625 C 747.769531 1148.558594 748.578125 1157.238281 748.691406 1158.5 C 750.703125 1181 742.699219 1196.289063 742.699219 1196.289063 "/>
<path style=" stroke:none;fill-rule:nonzero;fill:rgb(97.65625%,59.179688%,27.43988%);fill-opacity:1;" d="M 820.910156 1449.941406 C 794.277344 1475.648438 693.496094 1471.328125 687.285156 1443 C 681.082031 1414.671875 694.058594 1201.839844 739.546875 1188.46875 C 748.988281 1185.699219 799.453125 1202.011719 799.453125 1202.011719 C 799.453125 1202.011719 807.371094 1222.730469 812.566406 1249.101563 C 813.574219 1254.238281 816.515625 1308.621094 818.71875 1359.5 C 819.742188 1383.300781 820.613281 1406.328125 821.058594 1423.199219 C 821.460938 1439 821.480469 1449.378906 820.910156 1449.941406 "/>
<path style=" stroke:none;fill-rule:nonzero;fill:rgb(98.826599%,64.646912%,41.967773%);fill-opacity:1;" d="M 750.851563 1158.898438 C 756.707031 1168.800781 777.253906 1177.46875 788.140625 1181.441406 C 788.191406 1173.011719 787.375 1165.878906 787.375 1165.878906 L 758.511719 1153.140625 C 752.128906 1153.050781 748.242188 1154.480469 750.851563 1158.898438 "/>
<path style=" stroke:none;fill-rule:nonzero;fill:rgb(100%,69.726563%,49.021912%);fill-opacity:1;" d="M 798.261719 1164.121094 C 798.261719 1164.121094 751.753906 1178.628906 743.164063 1149.53125 C 734.574219 1120.421875 722.789063 1102.699219 752.121094 1092.199219 C 781.453125 1081.710938 790.523438 1091.101563 795.753906 1100.121094 C 800.984375 1109.140625 810.140625 1159.601563 798.261719 1164.121094 "/>
<path style=" stroke:none;fill-rule:nonzero;fill:rgb(8.616638%,20.776367%,37.646484%);fill-opacity:1;" d="M 793.929688 1097.320313 C 793.929688 1097.320313 790.960938 1131.179688 783.957031 1129.710938 C 776.953125 1128.238281 769.246094 1125.101563 770.269531 1135.308594 C 771.296875 1145.511719 763.460938 1163.019531 753.359375 1162.96875 C 731.703125 1162.878906 708.167969 1107.300781 714.097656 1096.769531 C 731.207031 1066.359375 818.65625 1060.21875 793.929688 1097.320313 "/>
<path style=" stroke:none;fill-rule:nonzero;fill:rgb(92.96875%,49.021912%,16.868591%);fill-opacity:1;" d="M 787.085938 1189.210938 C 786.484375 1188.960938 752.464844 1173.691406 748.484375 1175.011719 C 744.503906 1176.320313 739.546875 1188.46875 739.546875 1188.46875 L 799.453125 1202.019531 C 799.453125 1202.019531 794.738281 1192.429688 787.085938 1189.210938 "/>
<path style=" stroke:none;fill-rule:nonzero;fill:rgb(12.156677%,30.200195%,51.756287%);fill-opacity:1;" d="M 998.902344 1354.03125 L 808.183594 1533.601563 C 804.441406 1537.121094 799.730469 1538.238281 797.707031 1536.089844 L 791.269531 1529.25 C 789.246094 1527.101563 790.648438 1522.46875 794.386719 1518.949219 L 985.109375 1339.378906 C 988.847656 1335.859375 993.5625 1334.738281 995.582031 1336.890625 L 1002.019531 1343.71875 C 1004.039063 1345.871094 1002.640625 1350.511719 998.902344 1354.03125 "/>
<path style=" stroke:none;fill-rule:nonzero;fill:rgb(45.092773%,60.351563%,94.139099%);fill-opacity:1;" d="M 891.875 1454.800781 L 808.183594 1533.601563 C 804.441406 1537.121094 799.730469 1538.238281 797.707031 1536.089844 L 791.269531 1529.25 C 789.246094 1527.101563 790.648438 1522.46875 794.386719 1518.949219 L 878.078125 1440.148438 L 891.875 1454.800781 "/>
<path style=" stroke:none;fill-rule:nonzero;fill:rgb(12.156677%,30.200195%,51.756287%);fill-opacity:1;" d="M 997.792969 1148.269531 C 1030.710938 1113.269531 1077.621094 1099.328125 1121.671875 1106.949219 C 1147.339844 1111.398438 1172.019531 1123.148438 1192.410156 1142.339844 C 1247.800781 1194.441406 1250.449219 1281.570313 1198.339844 1336.960938 C 1179.160156 1357.339844 1155.238281 1370.578125 1129.898438 1376.578125 C 1086.390625 1386.878906 1038.71875 1375.828125 1003.71875 1342.898438 C 948.339844 1290.789063 945.679688 1203.660156 997.792969 1148.269531 M 955.066406 1286.230469 C 962.390625 1310.359375 975.949219 1332.960938 995.636719 1351.488281 C 1055.769531 1408.058594 1150.378906 1405.160156 1206.941406 1345.039063 C 1262.769531 1285.699219 1260.691406 1192.808594 1202.839844 1136.011719 C 1202.070313 1135.238281 1201.289063 1134.488281 1200.488281 1133.75 C 1140.371094 1077.179688 1045.769531 1080.050781 989.203125 1140.179688 C 951.148438 1180.621094 939.988281 1236.660156 955.066406 1286.230469 "/>
<path style=" stroke:none;fill-rule:nonzero;fill:rgb(57.617188%,70.896912%,96.09375%);fill-opacity:1;" d="M 1051.25 1372.128906 C 1041.449219 1368.601563 1031.960938 1363.910156 1022.988281 1358.058594 C 1016.25 1353.660156 1009.789063 1348.609375 1003.71875 1342.898438 C 948.339844 1290.789063 945.679688 1203.660156 997.792969 1148.269531 C 999.960938 1145.960938 1002.191406 1143.75 1004.480469 1141.628906 C 1030.730469 1117.238281 1064.371094 1104.929688 1098.078125 1104.929688 C 1105.96875 1104.929688 1113.859375 1105.609375 1121.671875 1106.960938 C 1136.050781 1109.449219 1150.128906 1114.230469 1163.308594 1121.339844 L 1051.25 1372.128906 "/>
<path style=" stroke:none;fill-rule:nonzero;fill:rgb(80.076599%,87.5%,98.826599%);fill-opacity:1;" d="M 1118.300781 1378.808594 L 1213.03125 1166.800781 C 1213.410156 1167.371094 1213.789063 1167.949219 1214.160156 1168.53125 C 1226.421875 1187.710938 1233.480469 1209.320313 1235.289063 1231.308594 C 1238.359375 1268.800781 1226.148438 1307.398438 1198.339844 1336.960938 C 1179.160156 1357.339844 1155.238281 1370.578125 1129.898438 1376.578125 C 1126.070313 1377.488281 1122.191406 1378.230469 1118.300781 1378.808594 "/>
<path style=" stroke:none;fill-rule:nonzero;fill:rgb(83.59375%,65.039063%,63.084412%);fill-opacity:1;" d="M 1098.03125 1380.300781 C 1093.671875 1380.300781 1089.308594 1380.089844 1084.960938 1379.679688 C 1073.53125 1378.601563 1062.199219 1376.078125 1051.25 1372.128906 L 1163.308594 1121.339844 C 1168.511719 1124.140625 1173.578125 1127.300781 1178.460938 1130.820313 C 1183.289063 1134.308594 1187.960938 1138.140625 1192.410156 1142.339844 C 1200.378906 1149.828125 1207.261719 1158.050781 1213.03125 1166.800781 L 1118.300781 1378.808594 C 1111.589844 1379.800781 1104.808594 1380.300781 1098.03125 1380.300781 "/>
<path style=" stroke:none;fill-rule:nonzero;fill:rgb(41.184998%,55.664063%,74.804688%);fill-opacity:1;" d="M 1098.039063 1380.300781 C 1093.679688 1380.300781 1089.308594 1380.089844 1084.960938 1379.679688 C 1089.308594 1380.089844 1093.671875 1380.300781 1098.03125 1380.300781 C 1104.808594 1380.300781 1111.589844 1379.800781 1118.300781 1378.808594 C 1122.191406 1378.230469 1126.070313 1377.488281 1129.898438 1376.578125 C 1155.238281 1370.578125 1179.160156 1357.339844 1198.339844 1336.960938 C 1226.148438 1307.398438 1238.359375 1268.800781 1235.289063 1231.308594 C 1238.359375 1268.800781 1226.148438 1307.398438 1198.351563 1336.960938 C 1179.160156 1357.339844 1155.238281 1370.578125 1129.898438 1376.589844 C 1119.449219 1379.058594 1108.738281 1380.300781 1098.039063 1380.300781 M 1022.988281 1358.058594 C 1016.238281 1353.660156 1009.789063 1348.609375 1003.71875 1342.898438 C 948.339844 1290.789063 945.679688 1203.660156 997.789063 1148.269531 C 999.960938 1145.960938 1002.191406 1143.75 1004.480469 1141.628906 C 1002.191406 1143.75 999.960938 1145.960938 997.792969 1148.269531 C 945.679688 1203.660156 948.339844 1290.789063 1003.71875 1342.898438 C 1009.789063 1348.609375 1016.25 1353.660156 1022.988281 1358.058594 M 1214.160156 1168.53125 C 1213.789063 1167.949219 1213.410156 1167.371094 1213.03125 1166.800781 C 1207.261719 1158.050781 1200.378906 1149.828125 1192.410156 1142.339844 C 1187.960938 1138.140625 1183.289063 1134.308594 1178.460938 1130.820313 C 1183.289063 1134.308594 1187.960938 1138.140625 1192.410156 1142.328125 C 1200.898438 1150.320313 1208.160156 1159.140625 1214.160156 1168.53125 "/>
<path style=" stroke:none;fill-rule:nonzero;fill:rgb(92.96875%,49.021912%,16.868591%);fill-opacity:1;" d="M 821.058594 1423.199219 C 715.96875 1348.320313 724.707031 1248.390625 724.707031 1248.390625 C 763.117188 1270.050781 801.230469 1317.949219 818.71875 1359.5 C 819.742188 1383.300781 820.613281 1406.328125 821.058594 1423.199219 "/>
<path style=" stroke:none;fill-rule:nonzero;fill:rgb(100%,69.726563%,49.021912%);fill-opacity:1;" d="M 924.777344 1389.101563 C 932.1875 1387.390625 937.164063 1381.789063 938.199219 1380.808594 C 938.199219 1380.808594 941.359375 1381.019531 937.679688 1387.761719 C 937.371094 1388.328125 936.6875 1389.78125 936.175781 1390.800781 C 935.964844 1391.21875 936.257813 1391.710938 936.722656 1391.738281 C 941 1392.070313 945.300781 1390.378906 953.539063 1392.089844 C 954.675781 1392.328125 955.003906 1395.050781 954.960938 1396.210938 C 954.886719 1398.179688 955.027344 1400.378906 952.746094 1403.390625 C 951.421875 1405.140625 947.714844 1407.03125 939.46875 1410.339844 C 936.324219 1411.609375 927.34375 1410.660156 918.921875 1407.761719 L 912.191406 1404.648438 L 914.28125 1392.140625 L 915.96875 1392.5 C 918.652344 1393.058594 921.980469 1389.78125 924.777344 1389.101563 "/>
<path style=" stroke:none;fill-rule:nonzero;fill:rgb(97.65625%,59.179688%,27.43988%);fill-opacity:1;" d="M 757.320313 1202.019531 C 757.320313 1202.019531 662.894531 1220 785.101563 1356.738281 C 804.644531 1378.609375 910.242188 1407.078125 910.242188 1407.078125 C 910.242188 1407.078125 920.949219 1397.96875 915.550781 1390.589844 C 915.550781 1390.589844 842.847656 1337.789063 826.851563 1329.398438 C 819.652344 1325.621094 798.917969 1245.128906 787.1875 1225.75 C 775.457031 1206.359375 757.320313 1202.019531 757.320313 1202.019531 "/>
<path style=" stroke:none;fill-rule:nonzero;fill:rgb(100%,69.726563%,49.021912%);fill-opacity:1;" d="M 939.308594 1253.019531 C 939.308594 1253.019531 942.398438 1247.121094 943 1244.011719 C 943.605469 1240.890625 947.492188 1231.808594 949.09375 1230.210938 C 949.738281 1229.570313 951.851563 1230.398438 952.101563 1233.148438 C 952.210938 1234.351563 951.621094 1236.53125 950.585938 1239.128906 C 948.894531 1243.351563 949.171875 1249.078125 948.585938 1250.988281 C 947.125 1255.75 939.308594 1253.019531 939.308594 1253.019531 "/>
<path style=" stroke:none;fill-rule:nonzero;fill:rgb(100%,69.726563%,49.021912%);fill-opacity:1;" d="M 976.886719 1018.738281 C 975.28125 1020.578125 975.074219 1022.640625 975.871094 1024.828125 L 975.886719 1024.871094 C 977.355469 1028.929688 982.207031 1033.460938 987.84375 1037.988281 C 988.5625 1038.570313 989.203125 1039.101563 989.761719 1039.589844 C 989.910156 1039.71875 990.058594 1039.851563 990.195313 1039.980469 C 990.308594 1040.078125 990.417969 1040.179688 990.527344 1040.28125 C 995.78125 1045.128906 993.804688 1046.238281 1003.25 1056.078125 C 1014.011719 1067.289063 1021.429688 1067.488281 1023.539063 1066.46875 C 1025.328125 1065.601563 1021.699219 1059.660156 1017.691406 1052.980469 C 1017.488281 1052.648438 1017.300781 1052.328125 1017.101563 1052 C 1016.570313 1051.109375 1016.03125 1050.210938 1015.5 1049.320313 C 1010.800781 1041.28125 1012.011719 1037.5 1013.128906 1025.539063 C 1014.039063 1015.808594 1028.269531 971.21875 1028.269531 971.21875 L 1007.628906 967.648438 C 1007.628906 967.648438 1001.410156 1003.171875 994.554688 1008.628906 C 990.890625 1011.550781 986.789063 1011.578125 983.269531 1013.738281 C 983.019531 1013.890625 982.777344 1014.050781 982.535156 1014.210938 C 980.535156 1015.53125 978.496094 1016.898438 976.886719 1018.738281 "/>
<path style=" stroke:none;fill-rule:nonzero;fill:rgb(13.719177%,21.972656%,38.426208%);fill-opacity:1;" d="M 976.886719 1018.738281 C 975.28125 1020.578125 975.074219 1022.640625 975.871094 1024.828125 L 975.886719 1024.871094 C 977.683594 1028.921875 982.414063 1033.441406 987.863281 1037.949219 C 988.574219 1038.539063 989.203125 1039.089844 989.761719 1039.589844 C 989.910156 1039.71875 990.058594 1039.851563 990.195313 1039.980469 C 990.308594 1040.078125 990.417969 1040.179688 990.527344 1040.28125 C 995.78125 1045.128906 993.804688 1046.238281 1003.25 1056.078125 C 1014.011719 1067.289063 1021.429688 1067.488281 1023.539063 1066.46875 C 1025.328125 1065.601563 1021.699219 1059.660156 1017.691406 1052.980469 C 1015.589844 1052.210938 1005.851563 1048.25 998.488281 1038.820313 C 992.242188 1030.839844 988 1020.679688 983.75 1014.429688 C 983.28125 1014.351563 983.003906 1014.289063 982.539063 1014.210938 C 980.535156 1015.53125 978.5 1016.898438 976.886719 1018.738281 "/>
<path style=" stroke:none;fill-rule:nonzero;fill:rgb(100%,69.726563%,49.021912%);fill-opacity:1;" d="M 1143.339844 1005.910156 C 1144.609375 1012.28125 1153.699219 1011.21875 1163.839844 1008.75 C 1173.988281 1006.269531 1171.578125 1009.21875 1186.019531 1007.621094 C 1200.460938 1006.03125 1204.839844 1000.648438 1205.28125 998.5 C 1205.679688 996.589844 1198.539063 995.921875 1190.890625 995.03125 C 1189.929688 994.929688 1188.960938 994.808594 1187.988281 994.691406 C 1179.351563 993.601563 1173.019531 988.019531 1165.179688 983.441406 C 1157.738281 979.101563 1146.648438 961.421875 1146.648438 961.421875 L 1126.851563 962.980469 C 1126.851563 962.980469 1137.230469 978.769531 1141.25 985.640625 C 1143.609375 989.671875 1143.488281 995.011719 1143.191406 999.128906 C 1143.039063 1001.371094 1142.890625 1003.660156 1143.339844 1005.910156 "/>
<path style=" stroke:none;fill-rule:nonzero;fill:rgb(13.719177%,21.972656%,38.426208%);fill-opacity:1;" d="M 1163.839844 1008.75 C 1173.988281 1006.269531 1171.578125 1009.21875 1186.019531 1007.621094 C 1200.460938 1006.03125 1204.839844 1000.648438 1205.28125 998.5 C 1205.679688 996.589844 1198.539063 995.921875 1190.890625 995.03125 L 1190.820313 995.179688 C 1190.820313 995.179688 1182.148438 1001.320313 1170.128906 1001.601563 C 1160.328125 1001.839844 1149.960938 999.03125 1143.191406 999.128906 C 1143.039063 1001.371094 1142.890625 1003.660156 1143.339844 1005.910156 C 1144.609375 1012.28125 1153.699219 1011.21875 1163.839844 1008.75 "/>
<path style=" stroke:none;fill-rule:nonzero;fill:rgb(13.719177%,21.972656%,38.426208%);fill-opacity:1;" d="M 1067.480469 879.238281 L 1048.949219 929.058594 L 1024.761719 994.101563 C 1024.761719 994.101563 1018.199219 994.730469 1011.921875 992.921875 C 1006.128906 991.25 999.5 986.871094 999.5 986.871094 C 999.5 986.871094 1006.230469 917.03125 1018.769531 876.941406 C 1021.980469 866.640625 1025.578125 858.320313 1029.550781 853.640625 C 1048.96875 830.710938 1067.480469 879.238281 1067.480469 879.238281 "/>
<path style=" stroke:none;fill-rule:nonzero;fill:rgb(16.479492%,30.589294%,58.789063%);fill-opacity:1;" d="M 1048.691406 800.109375 C 1038.148438 796.710938 1010.648438 800.039063 980.820313 805.429688 C 972.578125 806.921875 964.273438 803.160156 959.933594 795.988281 L 884.871094 790.109375 C 884.871094 790.109375 860.082031 845.03125 873.632813 880.03125 C 875.621094 885.179688 879.996094 888.390625 886.746094 888.5 C 886.746094 888.5 932.105469 888.578125 946.613281 888.578125 C 983.941406 888.589844 1025.628906 862.949219 1031.019531 861.871094 C 1039.839844 860.109375 1043.371094 877.761719 1052.179688 896.289063 C 1061 914.828125 1135.101563 978.378906 1135.101563 978.378906 C 1135.101563 978.378906 1146.488281 978.5 1151.199219 976.738281 C 1156.261719 974.839844 1158.109375 972.378906 1158.109375 972.378906 C 1158.109375 972.378906 1076.039063 808.941406 1048.691406 800.109375 "/>
<path style=" stroke:none;fill-rule:nonzero;fill:rgb(13.719177%,21.972656%,38.426208%);fill-opacity:1;" d="M 952.035156 575.558594 C 946.460938 572.238281 941.027344 571.730469 937.699219 571.828125 C 935.382813 571.890625 933.066406 571.738281 930.773438 571.410156 C 902.128906 567.191406 884.859375 608.800781 883.847656 621.378906 C 881.980469 644.460938 869.769531 647.96875 852.574219 662.429688 C 818.101563 691.398438 828.195313 725.089844 847.035156 737.609375 C 858.339844 745.128906 878.273438 737.621094 878.273438 737.621094 C 878.558594 737.820313 932.792969 707.328125 959.527344 692.621094 C 999.601563 686.941406 968.128906 585.148438 952.035156 575.558594 "/>
<path style=" stroke:none;fill-rule:nonzero;fill:rgb(100%,69.726563%,49.021912%);fill-opacity:1;" d="M 937.128906 680.078125 C 937.246094 680.160156 923.976563 684.691406 915.105469 680.75 C 906.757813 677.058594 900.4375 663.328125 900.5625 663.320313 C 904.359375 663.140625 908.53125 659.828125 911.746094 638.039063 L 913.363281 638.621094 L 940.546875 648.421875 C 940.546875 648.421875 938.574219 657.140625 937.296875 665.441406 C 936.222656 672.421875 935.644531 679.101563 937.128906 680.078125 "/>
<path style=" stroke:none;fill-rule:nonzero;fill:rgb(92.96875%,59.179688%,36.473083%);fill-opacity:1;" d="M 940.546875 648.421875 C 940.546875 648.421875 939.460938 653.121094 937.875 661.910156 C 922.261719 659.101563 915.5625 647.070313 913.363281 638.621094 L 940.546875 648.421875 "/>
<path style=" stroke:none;fill-rule:nonzero;fill:rgb(100%,69.726563%,49.021912%);fill-opacity:1;" d="M 944.59375 657.078125 C 944.59375 657.078125 907.398438 652.070313 910.871094 628.960938 C 914.347656 605.839844 911.886719 589.628906 935.777344 591.851563 C 959.671875 594.070313 962.949219 603.578125 963.667969 611.578125 C 964.386719 619.570313 954.355469 657.78125 944.59375 657.078125 "/>
<path style=" stroke:none;fill-rule:nonzero;fill:rgb(13.719177%,21.972656%,38.426208%);fill-opacity:1;" d="M 962.316406 598.898438 C 962.316406 598.898438 938.5 619.421875 922.304688 621.058594 C 906.105469 622.710938 899.976563 617.511719 899.976563 617.511719 C 899.976563 617.511719 909.523438 609.589844 915.273438 596.800781 C 916.96875 593.03125 920.550781 590.441406 924.664063 590.089844 C 936.230469 589.101563 958.152344 588.648438 962.316406 598.898438 "/>
<path style=" stroke:none;fill-rule:nonzero;fill:rgb(13.719177%,21.972656%,38.426208%);fill-opacity:1;" d="M 947.433594 597.058594 C 947.433594 597.058594 955.394531 604.769531 957.902344 610.480469 C 960.320313 615.988281 961.042969 629.179688 959.113281 634.410156 C 959.113281 634.410156 971.53125 610.289063 964.511719 598.558594 C 957.0625 586.121094 947.433594 597.058594 947.433594 597.058594 "/>
<path style=" stroke:none;fill-rule:nonzero;fill:rgb(97.65625%,59.179688%,27.43988%);fill-opacity:1;" d="M 968.429688 734.890625 C 967.277344 810.179688 968.101563 794.441406 959.863281 801.589844 C 957.878906 803.308594 952.296875 804.328125 944.953125 804.808594 C 921.867188 806.339844 881.285156 802.519531 879.742188 798.25 C 874.421875 783.488281 878.183594 778.898438 873.746094 756.300781 C 873.285156 753.890625 872.714844 751.289063 872.042969 748.460938 C 868.34375 732.929688 864.738281 727.648438 877.890625 702.71875 C 889.816406 680.128906 902.203125 661.800781 903.316406 662.460938 C 934.753906 681.140625 937.296875 665.449219 937.296875 665.449219 C 937.296875 665.449219 968.992188 698.160156 968.429688 734.890625 "/>
<path style=" stroke:none;fill-rule:nonzero;fill:rgb(16.479492%,30.589294%,58.789063%);fill-opacity:1;" d="M 1048.949219 929.058594 L 1024.761719 994.101563 C 1024.761719 994.101563 1018.199219 994.730469 1011.921875 992.921875 C 1006.128906 991.25 999.5 986.871094 999.5 986.871094 C 999.5 986.871094 1006.230469 917.03125 1018.769531 876.941406 L 1048.949219 929.058594 "/>
<path style=" stroke:none;fill-rule:nonzero;fill:rgb(97.65625%,59.179688%,27.43988%);fill-opacity:1;" d="M 937.296875 665.441406 C 937.296875 665.441406 969.652344 670.941406 973.445313 684.871094 C 977.238281 698.808594 989.71875 783.359375 989.71875 783.359375 C 989.71875 783.359375 980.589844 792.269531 972.996094 784.671875 C 965.398438 777.070313 949.109375 705.550781 949.109375 705.550781 L 937.296875 665.441406 "/>
<path style=" stroke:none;fill-rule:nonzero;fill:rgb(92.96875%,49.021912%,16.868591%);fill-opacity:1;" d="M 944.953125 804.808594 C 921.867188 806.339844 881.285156 802.519531 879.742188 798.25 C 874.421875 783.488281 878.183594 778.898438 873.746094 756.300781 L 884.894531 724.941406 C 884.894531 724.941406 883.039063 759.859375 893.335938 769.050781 C 903.617188 778.238281 935.488281 786.789063 940.492188 794.46875 C 942.90625 798.148438 944.492188 801.851563 944.953125 804.808594 "/>
<path style=" stroke:none;fill-rule:nonzero;fill:rgb(100%,69.726563%,49.021912%);fill-opacity:1;" d="M 918.507813 790.121094 C 918.507813 790.121094 941.285156 785.050781 944.960938 787.078125 C 948.636719 789.101563 957.613281 796.460938 958.738281 799.019531 C 959.863281 801.589844 950.558594 797.078125 947.53125 796.261719 C 945.570313 795.738281 940.410156 797.53125 937.855469 798.378906 C 927.105469 801.960938 920.515625 800.109375 920.515625 800.109375 L 918.507813 790.121094 "/>
<path style=" stroke:none;fill-rule:nonzero;fill:rgb(97.65625%,59.179688%,27.43988%);fill-opacity:1;" d="M 903.296875 662.441406 C 903.296875 662.441406 872.714844 664.320313 862.121094 679.078125 C 847.210938 699.859375 817.617188 788.441406 834.554688 800.261719 C 853.632813 813.570313 921.398438 803.769531 921.398438 803.769531 C 921.398438 803.769531 923.65625 793.230469 920.519531 788.128906 C 917.386719 783.03125 866.402344 774.78125 864.050781 772.421875 C 861.699219 770.070313 893.480469 726.550781 893.484375 719.488281 C 893.484375 712.429688 903.296875 662.441406 903.296875 662.441406 "/>
<path style=" stroke:none;fill-rule:nonzero;fill:rgb(100%,69.726563%,49.021912%);fill-opacity:1;" d="M 946.0625 793.421875 C 946.0625 793.421875 950.832031 799.570313 952.394531 800.308594 C 953.960938 801.039063 954.972656 800.859375 954.972656 800.859375 L 951.757813 795.070313 L 946.0625 793.421875 "/>
<path style=" stroke:none;fill-rule:nonzero;fill:rgb(100%,69.726563%,49.021912%);fill-opacity:1;" d="M 944.960938 787.078125 L 958.835938 793.820313 C 958.835938 793.820313 958.242188 794.78125 956.535156 794.710938 C 954.828125 794.628906 950.519531 793.050781 950.519531 793.050781 L 944.960938 787.078125 "/>
<path style=" stroke:none;fill-rule:nonzero;fill:rgb(13.719177%,21.972656%,38.426208%);fill-opacity:1;" d="M 1063.441406 802.960938 L 918.503906 802.910156 L 918.503906 806.109375 L 1062.148438 806.160156 L 1063.441406 802.960938 "/>
<path style=" stroke:none;fill-rule:nonzero;fill:rgb(13.719177%,21.972656%,38.426208%);fill-opacity:1;" d="M 952.394531 806.121094 L 1062.148438 806.160156 L 1095.199219 724.058594 L 985.609375 724.019531 L 952.394531 806.121094 "/>
<path style=" stroke:none;fill-rule:nonzero;fill:rgb(100%,100%,100%);fill-opacity:1;" d="M 1034.460938 765.089844 C 1035.289063 762.210938 1033.621094 759.871094 1030.730469 759.871094 C 1027.851563 759.859375 1024.839844 762.199219 1024.011719 765.089844 C 1023.179688 767.96875 1024.851563 770.308594 1027.730469 770.320313 C 1030.621094 770.320313 1033.628906 767.980469 1034.460938 765.089844 "/>
<path style=" stroke:none;fill-rule:nonzero;fill:rgb(8.616638%,20.776367%,37.646484%);fill-opacity:1;" d="M 1777.269531 1115.738281 C 1762.488281 1110.828125 1752.25 1117.019531 1752.25 1117.019531 C 1709.679688 1118.769531 1708.101563 1162.410156 1713.101563 1178.648438 C 1720.121094 1201.460938 1695.28125 1219.441406 1722.820313 1228.671875 C 1754.78125 1239.378906 1781.601563 1226.679688 1779.769531 1232.191406 C 1880.839844 1240.160156 1810.898438 1126.898438 1777.269531 1115.738281 "/>
<path style=" stroke:none;fill-rule:nonzero;fill:rgb(97.65625%,59.179688%,27.43988%);fill-opacity:1;" d="M 1733.121094 1327.980469 C 1733.121094 1327.980469 1729.070313 1335.988281 1721.738281 1345.191406 C 1712.890625 1356.269531 1666.480469 1329.980469 1670.46875 1327.980469 C 1674.46875 1325.980469 1697.800781 1258.78125 1703.351563 1250.339844 C 1708.910156 1241.890625 1727.828125 1237.511719 1727.828125 1237.511719 L 1733.121094 1327.980469 "/>
<path style=" stroke:none;fill-rule:nonzero;fill:rgb(12.156677%,26.660156%,49.804688%);fill-opacity:1;" d="M 1889.761719 1781.179688 C 1889.761719 1781.179688 1902.570313 1792.878906 1900.070313 1801.179688 C 1897.570313 1809.488281 1886.011719 1815.03125 1884.449219 1825.179688 C 1882.878906 1835.328125 1876.628906 1840.871094 1871.011719 1840.871094 C 1865.378906 1840.871094 1844.191406 1840.871094 1844.191406 1840.871094 C 1844.191406 1840.871094 1840.050781 1833.730469 1850.050781 1831.570313 C 1860.050781 1829.421875 1863.820313 1817.488281 1863.199219 1806.410156 C 1862.570313 1795.339844 1864.128906 1780.570313 1864.128906 1780.570313 L 1885.378906 1775.648438 L 1889.761719 1781.179688 "/>
<path style=" stroke:none;fill-rule:nonzero;fill:rgb(10.984802%,19.213867%,32.93457%);fill-opacity:1;" d="M 1781.320313 1786.148438 C 1781.320313 1786.148438 1785.929688 1835.679688 1780.308594 1838.449219 L 1708.328125 1838.300781 C 1708.328125 1838.300781 1708.328125 1829.988281 1719.890625 1828.148438 C 1731.449219 1826.300781 1751.761719 1819.53125 1755.199219 1804.449219 C 1758.640625 1789.378906 1781.320313 1786.148438 1781.320313 1786.148438 "/>
<path style=" stroke:none;fill-rule:nonzero;fill:rgb(97.65625%,59.179688%,27.43988%);fill-opacity:1;" d="M 1836.691406 1294.570313 C 1836.691406 1294.570313 1837.769531 1309.691406 1836.691406 1327.839844 C 1835.980469 1339.871094 1823.808594 1355.980469 1822.089844 1359.960938 C 1817.75 1369.960938 1812.871094 1371.589844 1812.871094 1371.589844 L 1775.078125 1380.851563 L 1761.789063 1384.101563 L 1719.878906 1371.589844 C 1719.878906 1371.589844 1700.800781 1318.308594 1708.460938 1288.320313 C 1716.121094 1258.328125 1727.828125 1237.511719 1727.828125 1237.511719 C 1727.828125 1237.511719 1756.308594 1231.109375 1806.550781 1234.671875 L 1836.691406 1294.570313 "/>
<path style=" stroke:none;fill-rule:nonzero;fill:rgb(92.96875%,49.021912%,16.868591%);fill-opacity:1;" d="M 1840.289063 1328.261719 C 1839.578125 1340.289063 1823.808594 1355.980469 1822.089844 1359.960938 C 1817.75 1369.960938 1812.871094 1371.589844 1812.871094 1371.589844 L 1775.078125 1380.851563 L 1768.25 1361.289063 C 1768.25 1361.289063 1823.46875 1346.789063 1814.589844 1295.679688 L 1840.289063 1328.261719 "/>
<path style=" stroke:none;fill-rule:nonzero;fill:rgb(13.719177%,21.972656%,38.426208%);fill-opacity:1;" d="M 1722.550781 1379.671875 C 1722.550781 1379.671875 1701.800781 1444.269531 1700.460938 1466.261719 C 1699.128906 1488.25 1740.128906 1778.679688 1741.78125 1788.808594 C 1743.339844 1798.371094 1755.199219 1804.449219 1755.199219 1804.449219 C 1755.199219 1804.449219 1760.648438 1807.671875 1768.441406 1805.46875 C 1779.238281 1802.421875 1782.660156 1798.769531 1782.660156 1798.769531 C 1782.660156 1798.769531 1798.808594 1591.640625 1788.808594 1517.648438 C 1778.820313 1443.660156 1778.699219 1379.671875 1778.699219 1379.671875 L 1722.550781 1379.671875 "/>
<path style=" stroke:none;fill-rule:nonzero;fill:rgb(16.479492%,30.589294%,58.789063%);fill-opacity:1;" d="M 1810.46875 1377.75 C 1810.46875 1377.75 1842.128906 1420.21875 1845.078125 1448.929688 C 1848.03125 1477.648438 1849.710938 1578.5 1856 1606.488281 C 1862.28125 1634.480469 1885.378906 1688.339844 1885.378906 1775.648438 C 1885.378906 1775.648438 1882.980469 1780.648438 1875.570313 1783.308594 C 1873.199219 1784.171875 1870.019531 1784.988281 1866.941406 1785.699219 C 1860.820313 1787.101563 1854.550781 1784.121094 1851.761719 1778.5 C 1836.140625 1747.050781 1786.390625 1645.640625 1783.839844 1624.589844 C 1782.039063 1609.691406 1766.328125 1511.089844 1732.070313 1453.230469 C 1723.839844 1439.339844 1737.121094 1384.101563 1737.121094 1384.101563 L 1810.46875 1377.75 "/>
<path style=" stroke:none;fill-rule:nonzero;fill:rgb(13.719177%,21.972656%,38.426208%);fill-opacity:1;" d="M 1719.230469 1369.699219 C 1719.230469 1369.699219 1727.558594 1376.289063 1744.109375 1376.628906 C 1763.878906 1377.019531 1812.871094 1371.589844 1812.871094 1371.589844 C 1812.871094 1371.589844 1815.039063 1377.671875 1814.960938 1384.089844 C 1814.960938 1384.089844 1755.128906 1399.179688 1720.460938 1386.289063 C 1720.460938 1386.289063 1715.988281 1377.878906 1719.230469 1369.699219 "/>
<path style=" stroke:none;fill-rule:nonzero;fill:rgb(100%,100%,100%);fill-opacity:1;" d="M 1739.371094 1376.230469 C 1736.050781 1376.230469 1733.339844 1379.46875 1733.339844 1383.449219 C 1733.339844 1387.429688 1736.050781 1390.671875 1739.371094 1390.671875 C 1742.699219 1390.671875 1745.398438 1387.429688 1745.398438 1383.449219 C 1745.398438 1379.46875 1742.699219 1376.230469 1739.371094 1376.230469 Z M 1739.371094 1393.660156 C 1734.398438 1393.660156 1730.351563 1389.078125 1730.351563 1383.449219 C 1730.351563 1377.820313 1734.398438 1373.238281 1739.371094 1373.238281 C 1744.351563 1373.238281 1748.390625 1377.820313 1748.390625 1383.449219 C 1748.390625 1389.078125 1744.351563 1393.660156 1739.371094 1393.660156 "/>
<path style=" stroke:none;fill-rule:nonzero;fill:rgb(70.896912%,27.050781%,23.535156%);fill-opacity:1;" d="M 1782.589844 1412.230469 L 1692.671875 1413.070313 L 1648.429688 1309.089844 L 1738.351563 1308.25 L 1782.589844 1412.230469 "/>
<path style=" stroke:none;fill-rule:nonzero;fill:rgb(100%,69.726563%,49.021912%);fill-opacity:1;" d="M 1770.828125 1365.238281 L 1764.238281 1357.140625 C 1764.238281 1357.140625 1759.78125 1353.160156 1756.539063 1352.488281 C 1753.308594 1351.808594 1746.46875 1347.871094 1745.808594 1348.980469 C 1745.148438 1350.089844 1751.058594 1358.011719 1751.058594 1358.011719 L 1751.359375 1358.058594 C 1744.570313 1363.160156 1727.429688 1358.660156 1725.320313 1360.738281 C 1722.75 1363.261719 1728.851563 1368.71875 1732.121094 1371.789063 C 1735.390625 1374.851563 1744.738281 1379.960938 1752.03125 1377.691406 C 1757.351563 1376.03125 1765.738281 1374.339844 1765.738281 1374.339844 L 1770.828125 1365.238281 "/>
<path style=" stroke:none;fill-rule:nonzero;fill:rgb(100%,69.726563%,49.021912%);fill-opacity:1;" d="M 1655.191406 1327.378906 C 1655.191406 1327.378906 1660.839844 1320.960938 1664.441406 1324.039063 C 1668.03125 1327.121094 1663.5 1342.28125 1660.070313 1340.738281 C 1656.648438 1339.199219 1653.21875 1329.261719 1655.191406 1327.378906 "/>
<path style=" stroke:none;fill-rule:nonzero;fill:rgb(97.65625%,59.179688%,27.43988%);fill-opacity:1;" d="M 1806.550781 1234.671875 C 1806.550781 1234.671875 1832.289063 1237.511719 1850.769531 1271.070313 C 1865.328125 1297.539063 1890.238281 1346.328125 1880.839844 1360.121094 C 1876.710938 1366.171875 1837.171875 1387.699219 1760.898438 1375.390625 C 1760.898438 1375.390625 1762.101563 1365.761719 1768.25 1361.289063 C 1768.25 1361.289063 1832.441406 1340.691406 1832.328125 1336.589844 C 1832.121094 1328.828125 1823.660156 1322.128906 1787.800781 1286.269531 C 1778.050781 1276.511719 1806.550781 1234.671875 1806.550781 1234.671875 "/>
<path style=" stroke:none;fill-rule:nonzero;fill:rgb(100%,69.726563%,49.021912%);fill-opacity:1;" d="M 1786.738281 1236.03125 C 1787.628906 1234.839844 1786.488281 1231.058594 1785.070313 1224.019531 C 1783.789063 1217.640625 1781.621094 1207.769531 1781.671875 1196.671875 L 1779.769531 1196.988281 L 1747.871094 1202.359375 C 1747.871094 1202.359375 1748.589844 1210.890625 1748.609375 1218.921875 L 1748.621094 1219.121094 C 1748.648438 1226.101563 1746.730469 1236.648438 1749.089844 1238.03125 C 1761.171875 1245.109375 1783.339844 1240.601563 1786.738281 1236.03125 "/>
<path style=" stroke:none;fill-rule:nonzero;fill:rgb(91.014099%,58.006287%,35.693359%);fill-opacity:1;" d="M 1747.871094 1202.359375 C 1747.871094 1202.359375 1748.5 1214.390625 1748.519531 1222.421875 C 1766.378906 1221.988281 1775.898438 1204.660156 1779.769531 1196.988281 L 1747.871094 1202.359375 "/>
<path style=" stroke:none;fill-rule:nonzero;fill:rgb(100%,69.726563%,49.021912%);fill-opacity:1;" d="M 1745.941406 1216.699219 C 1745.941406 1216.699219 1787.761719 1210.75 1783.648438 1184.761719 C 1779.539063 1158.769531 1782.171875 1140.5 1755.300781 1143.199219 C 1728.421875 1145.910156 1724.808594 1156.640625 1724.070313 1165.648438 C 1723.339844 1174.660156 1734.960938 1217.578125 1745.941406 1216.699219 "/>
<path style=" stroke:none;fill-rule:nonzero;fill:rgb(8.616638%,20.776367%,37.646484%);fill-opacity:1;" d="M 1736.199219 1145.589844 C 1736.199219 1145.589844 1752.46875 1174.261719 1770.71875 1175.96875 C 1788.960938 1177.691406 1795.820313 1171.78125 1795.820313 1171.78125 C 1795.820313 1171.78125 1780.671875 1163.238281 1774.910156 1145.039063 C 1774.910156 1145.039063 1742.5 1129.710938 1736.199219 1145.589844 "/>
<path style=" stroke:none;fill-rule:nonzero;fill:rgb(8.616638%,20.776367%,37.646484%);fill-opacity:1;" d="M 1739.421875 1147.621094 C 1739.421875 1147.621094 1731.460938 1152.128906 1728.960938 1158.859375 C 1726.511719 1165.449219 1724.878906 1173.910156 1727.121094 1183.621094 C 1727.121094 1183.621094 1715.210938 1164.269531 1723.011719 1151.011719 C 1731.289063 1136.941406 1739.421875 1147.621094 1739.421875 1147.621094 "/>
<path style=" stroke:none;fill-rule:nonzero;fill:rgb(13.719177%,21.972656%,38.426208%);fill-opacity:1;" d="M 2660.859375 1844.609375 L 342.515625 1844.609375 C 340.921875 1844.609375 339.617188 1843.300781 339.617188 1841.710938 L 339.617188 1840.039063 C 339.617188 1838.441406 340.921875 1837.140625 342.515625 1837.140625 L 2660.859375 1837.140625 C 2662.460938 1837.140625 2663.761719 1838.441406 2663.761719 1840.039063 L 2663.761719 1841.710938 C 2663.761719 1843.300781 2662.460938 1844.609375 2660.859375 1844.609375 "/>
</g>
</svg>
